<svg width="50" height="50" viewBox="0 0 50 50" fill="none" xmlns="http://www.w3.org/2000/svg">
<g clip-path="url(#clip0_602_7069)">
<path d="M24.9999 4.16663C36.4999 4.16663 45.8333 13.5 45.8333 25C45.8333 36.5 36.4999 45.8333 24.9999 45.8333C13.4999 45.8333 4.16659 36.5 4.16659 25C4.16659 13.5 13.4999 4.16663 24.9999 4.16663ZM24.9999 10.4166C21.5416 10.4166 18.7499 13.2083 18.7499 16.6666C18.7499 20.125 21.5416 22.9166 24.9999 22.9166C28.4583 22.9166 31.2499 20.125 31.2499 16.6666C31.2499 13.2083 28.4583 10.4166 24.9999 10.4166ZM24.9999 40C30.2083 40 34.8124 37.3333 37.4999 33.2916C37.4374 29.1458 29.1666 26.875 24.9999 26.875C20.8541 26.875 12.5624 29.1458 12.4999 33.2916C15.1874 37.3333 19.7916 40 24.9999 40Z" fill="white"/>
</g>
<defs>
<clipPath id="clip0_602_7069">
<rect width="50" height="50" fill="white" transform="matrix(-1 0 0 1 50 0)"/>
</clipPath>
</defs>
</svg>
