<svg width="18" height="18" viewBox="0 0 18 18" fill="none" xmlns="http://www.w3.org/2000/svg">
<g clip-path="url(#clip0_601_10153)">
<rect x="3" y="1.5" width="13.5" height="16.5" fill="white"/>
<path fill-rule="evenodd" clip-rule="evenodd" d="M15.8008 0C17.0146 0 18 0.98543 18 2.19916V15.8008C18 17.0146 17.0146 18 15.8008 18H12.0578V11.2178H14.3992L14.8447 8.31319H12.0578V6.42822C12.0578 5.63358 12.4471 4.85898 13.6954 4.85898H14.9625V2.38609C14.9625 2.38609 13.8125 2.18985 12.7131 2.18985C10.4179 2.18985 8.91766 3.58095 8.91766 6.09936V8.31319H6.36627V11.2178H8.91766V18H2.19916C0.98543 18 0 17.0146 0 15.8008V2.19916C0 0.98543 0.985394 0 2.19916 0H15.8008V0Z" fill="#1777F2"/>
</g>
<defs>
<clipPath id="clip0_601_10153">
<rect width="18" height="18" fill="white"/>
</clipPath>
</defs>
</svg>
