<svg width="65" height="36" viewBox="0 0 65 36" fill="none" xmlns="http://www.w3.org/2000/svg">
<line y1="0.695652" x2="64.75" y2="0.695652" stroke="#F1DBC7" stroke-width="0.608696"/>
<line y1="9.44565" x2="64.75" y2="9.44565" stroke="#F1DBC7" stroke-width="0.608696"/>
<line y1="18.1957" x2="64.75" y2="18.1957" stroke="#F1DBC7" stroke-width="0.608696"/>
<line y1="26.9457" x2="64.75" y2="26.9457" stroke="#F1DBC7" stroke-width="0.608696"/>
<line y1="35.6957" x2="64.75" y2="35.6957" stroke="#F1DBC7" stroke-width="0.608696"/>
<path d="M52.0434 15C52.0434 12.6869 51.6782 10.7188 50.9477 9.09563C50.2579 7.43186 49.2434 6.17389 47.9043 5.32172C46.5651 4.46954 44.9419 4.04346 43.0347 4.04346C41.168 4.04346 39.5043 4.48983 38.0434 5.38259C36.5825 6.23476 35.3651 7.53331 34.3912 9.27824C33.7419 7.61447 32.7072 6.33621 31.2869 5.44346C29.9072 4.51012 28.2434 4.04346 26.2956 4.04346C24.5506 4.04346 23.0289 4.42896 21.7303 5.19998C20.4724 5.97099 19.4173 7.1478 18.5651 8.73041V4.65215H13.6956V32.6522H18.5651V15.6087C18.5651 14.1478 18.8289 12.8898 19.3564 11.8348C19.884 10.7797 20.6347 9.98839 21.6086 9.46085C22.5825 8.89273 23.739 8.60867 25.0782 8.60867C26.9043 8.60867 28.2434 9.17679 29.0956 10.313C29.9883 11.4493 30.4347 13.2145 30.4347 15.6087V32.6522H35.3043V15.6087C35.3043 14.1478 35.568 12.8898 36.0956 11.8348C36.6231 10.7797 37.3738 9.98839 38.3477 9.46085C39.3216 8.89273 40.4782 8.60867 41.8173 8.60867C43.6434 8.60867 44.9825 9.17679 45.8347 10.313C46.7274 11.4493 47.1738 13.2145 47.1738 15.6087V32.6522H52.0434V15Z" fill="#F2994A"/>
</svg>
